#!OML:ASF H:\Terrain\Walking\May29\JustinRory\Justin.ASF
:FULLY-SPECIFIED
:DEGREES
556
root 7.88202 15.3476 31.6237 -286.687 -70.2615 299.255
lowerback 18.6237 -1.20418 -11.8839
upperback 4.30048 -4.0077 0.281956
thorax -4.8857 -1.94581 7.94006
lowerneck -9.43825 -10.7927 -13.4927
upperneck 17.7828 -17.4781 20.2667
head 10.3295 -7.70331 6.9812
rclavicle 1.27222e-014 -4.13472e-014
rhumerus -75.3305 -40.4628 -21.7245
rradius 83.8259
rwrist -80.4341
rhand -14.2343 5.65334
rfingers 7.12502
rthumb 11.9032 -23.9883
lclavicle 1.27222e-014 -4.13472e-014
lhumerus -31.146 20.8017 55.6676
lradius 60.6631
lwrist -3.63591
lhand -11.0811 35.3879
lfingers 7.12502
lthumb 14.9424 64.8289
rfemur 1.32805 -9.23813 9.90455
rtibia 28.8325
rfoot -14.018 -10.5946
rtoes -46.0309
lfemur -52.7582 8.31662 17.2394
ltibia 81.5378
lfoot -27.135 -4.89805
ltoes -37.8
557
root 7.81803 15.3772 31.8465 -288.97 -69.4357 302.346
lowerback 18.1363 -1.60904 -10.9676
upperback 3.91012 -4.31657 0.0227525
thorax -5.08165 -2.06324 7.17979
lowerneck -9.14792 -10.958 -12.3197
upperneck 17.5503 -17.7595 19.7263
head 10.0668 -7.82711 6.5383
rclavicle -1.90833e-014 -6.67916e-014
rhumerus -76.1074 -40.0648 -21.8461
rradius 84.4889
rwrist -80.1814
rhand -16.2594 5.96218
rfingers 7.12502
rthumb 9.94988 -23.7827
lclavicle -1.90833e-014 -6.67916e-014
lhumerus -30.6212 20.19 55.76
lradius 59.6964
lwrist -3.46331
lhand -10.7397 35.0215
lfingers 7.12502
lthumb 15.2713 64.4378
rfemur 1.86455 -8.04742 10.1913
rtibia 27.2599
rfoot -11.4448 -12.2692
rtoes -45.0962
lfemur -53.7733 8.7814 16.3708
ltibia 81.277
lfoot -28.518 -6.96363
ltoes -33.8425
558
root 7.75812 15.401 32.0738 -290.464 -68.4902 304.709
lowerback 17.1127 -1.91569 -9.89768
upperback 3.8234 -4.40835 -0.222814
thorax -4.71695 -2.13257 6.25895
lowerneck -8.99029 -11.0849 -11.8975
upperneck 17.0357 -18.0788 20.2835
head 9.94273 -7.95033 6.6076
rclavicle 1.43125e-014 -4.13472e-014
rhumerus -76.9564 -40.3199 -21.9266
rradius 85.3124
rwrist -79.9942
rhand -18.4047 5.89891
rfingers 7.12502
rthumb 7.87972 -23.9342
lclavicle 1.43125e-014 -4.13472e-014
lhumerus -29.4293 19.6158 56.1918
lradius 58.5065
lwrist -3.70854
lhand -11.7673 34.9824
lfingers 7.12502
lthumb 14.2812 64.4713
rfemur 2.13065 -6.80717 10.5698
rtibia 25.7372
rfoot -8.56124 -13.8201
rtoes -43.8001
lfemur -54.776 9.35151 15.6645
ltibia 81.0985
lfoot -29.3892 -8.68332
ltoes -31.306
559
root 7.69172 15.4329 32.3002 -292.016 -67.1805 306.683
lowerback 17.6976 -1.93901 -9.3869
upperback 3.11081 -4.37118 0.52383
thorax -5.78756 -2.016 6.84732
lowerneck -8.73606 -11.1761 -13.1844
upperneck 16.9997 -18.2112 21.0412
head 10.1285 -8.05396 7.08954
rclavicle 2.70347e-014 -2.22639e-014
rhumerus -77.1692 -39.2804 -21.0487
rradius 85.9806
rwrist -80.1274
rhand -20.207 5.71212
rfingers 7.12502
rthumb 6.14 -24.1789
lclavicle 2.70347e-014 -2.22639e-014
lhumerus -29.6259 18.478 58.0725
lradius 57.5088
lwrist -3.3076
lhand -15.1587 36.2107
lfingers 7.12502
lthumb 11.0117 65.9019
rfemur 2.76774 -5.29511 11.3995
rtibia 24.3591
rfoot -6.15705 -15.8706
rtoes -42.1124
lfemur -55.4255 9.67532 15.3056
ltibia 81.0259
lfoot -30.2547 -10.1358
ltoes -28.514
560
root 7.62112 15.4638 32.5314 -293.898 -65.6136 308.461
lowerback 17.5244 -2.02533 -8.42822
upperback 3.38727 -4.24846 1.00857
thorax -5.4498 -2.00204 6.78117
lowerneck -8.72572 -11.4056 -13.8309
upperneck 16.3524 -18.5221 21.932
head 10.1442 -8.20177 7.45082
rclavicle -3.65764e-014 5.08889e-014
rhumerus -76.8981 -39.8329 -20.5952
rradius 86.1985
rwrist -79.4983
rhand -21.5949 5.29388
rfingers 7.12502
rthumb 4.79993 -24.6318
lclavicle -3.65764e-014 5.08889e-014
lhumerus -28.5928 19.0837 59.1341
lradius 56.5212
lwrist -4.76129
lhand -11.1257 34.2596
lfingers 7.12502
lthumb 14.8994 63.7038
rfemur 3.8203 -3.67186 12.4822
rtibia 23.3891
rfoot -4.09028 -18.4439
rtoes -38.8033
lfemur -55.7029 9.98832 15.0462
ltibia 80.944
lfoot -31.0116 -11.6392
ltoes -25.8246
561
root 7.55029 15.5021 32.7761 -296.923 -65.061 311.525
lowerback 17.4629 -2.18692 -8.61432
upperback 3.53465 -4.46789 1.23942
thorax -5.18344 -2.12762 7.16728
lowerneck -8.91986 -11.6031 -14.2537
upperneck 16.043 -18.6832 22.1344
head 10.1793 -8.27737 7.54479
rclavicle 6.04305e-014 3.49861e-014
rhumerus -75.6737 -40.1793 -20.6516
rradius 86.37
rwrist -79.3161
rhand -23.5245 4.77517
rfingers 7.12502
rthumb 2.93654 -25.1844
lclavicle 6.04305e-014 3.49861e-014
lhumerus -27.9396 20.0663 60.1274
lradius 56.042
lwrist -3.70673
lhand -6.60222 32.8429
lfingers 7.12502
lthumb 19.2534 61.9098
rfemur 4.60869 -2.424 12.1217
rtibia 23.0782
rfoot -2.14998 -21.0343
rtoes -32.645
lfemur -56.0315 10.1326 13.1219
ltibia 80.7869
lfoot -32.1512 -11.6887
ltoes -27.6622
562
root 7.51148 15.5552 33.0045 -297.963 -64.5773 313.127
lowerback 17.0889 -1.97331 -8.31666
upperback 3.51788 -4.10617 1.12408
thorax -5.09733 -1.95739 6.77801
lowerneck -9.07577 -11.9769 -13.6598
upperneck 15.3527 -19.2317 22.4546
head 10.0669 -8.49484 7.42319
rclavicle 1.90833e-014 -1.90833e-014
rhumerus -75.68 -41.0481 -20.2896
rradius 86.7555
rwrist -80.1602
rhand -27.0792 5.94695
rfingers 7.12502
rthumb -0.496619 -24.0322
lclavicle 1.90833e-014 -1.90833e-014
lhumerus -26.3677 19.4882 61.3095
lradius 55.322
lwrist -2.41672
lhand -5.23307 33.1736
lfingers 7.12502
lthumb 20.5695 62.1038
rfemur 3.9185 -0.479892 12.2277
rtibia 23.6117
rfoot -0.0218919 -24.3355
rtoes -25.8963
lfemur -56.7297 10.9656 11.375
ltibia 80.5053
lfoot -32.9301 -11.5299
ltoes -28.688
563
root 7.46872 15.6113 33.2204 -298.002 -63.8453 313.874
lowerback 16.3897 -1.99077 -7.98206
upperback 3.30099 -3.99557 1.32129
thorax -4.98136 -1.9012 6.74083
lowerneck -8.80343 -12.0386 -13.7508
upperneck 14.8139 -19.2901 22.7918
head 9.89477 -8.54738 7.54906
rclavicle 0 -6.99722e-014
rhumerus -74.5223 -41.4737 -20.5409
rradius 86.8743
rwrist -80.7962
rhand -27.5997 2.90354
rfingers 7.12502
rthumb -0.999326 -27.0739
lclavicle 0 -6.99722e-014
lhumerus -25.851 19.1263 62.2938
lradius 54.5829
lwrist -2.3063
lhand -6.78354 34.6382
lfingers 7.12502
lthumb 19.079 63.7224
rfemur 2.39433 1.35747 12.8181
rtibia 25.0894
rfoot 2.6834 -27.3289
rtoes -20.2056
lfemur -57.5606 11.8563 10.2467
ltibia 80.2767
lfoot -33.0892 -12.2254
ltoes -26.8974
564
root 7.41816 15.6781 33.4463 -300.013 -63.2633 315.841
lowerback 16.6014 -2.13819 -8.22143
upperback 3.25165 -4.22924 1.60887
thorax -5.06684 -2.0048 7.24875
lowerneck -8.4678 -11.992 -14.2662
upperneck 14.4472 -19.0898 22.8678
head 9.72491 -8.50725 7.70891
rclavicle 4.6118e-014 4.77083e-014
rhumerus -72.7291 -41.6799 -21.0619
rradius 86.8046
rwrist -81.1821
rhand -30.0237 4.28991
rfingers 7.12502
rthumb -3.34035 -25.6637
lclavicle 4.6118e-014 4.77083e-014
lhumerus -25.8396 19.3945 63.1212
lradius 53.7414
lwrist -3.73413
lhand -5.43168 33.7147
lfingers 7.12502
lthumb 20.3786 62.6654
rfemur 1.65009 2.55481 12.968
rtibia 27.2484
rfoot 5.36979 -29.1434
rtoes -13.7988
lfemur -57.5374 11.4789 8.89024
ltibia 79.9942
lfoot -33.1304 -12.7878
ltoes -25.0268
565
root 7.37315 15.7474 33.6704 -302.054 -63.0842 317.913
lowerback 16.7729 -2.25959 -9.08183
upperback 3.14182 -4.52889 2.01441
thorax -5.11685 -2.13111 8.25579
lowerneck -8.07233 -11.8161 -15.1602
upperneck 14.1038 -18.5961 22.7333
head 9.4989 -8.35524 7.91484
rclavicle 4.92986e-014 9.54166e-015
rhumerus -70.2977 -41.666 -21.753
rradius 86.5691
rwrist -81.7693
rhand -30.2932 1.9947
rfingers 7.12502
rthumb -3.60062 -27.9546
lclavicle 4.92986e-014 9.54166e-015
lhumerus -26.2016 20.4483 63.8939
lradius 53.1264
lwrist -5.38795
lhand -2.48935 33.2374
lfingers 7.12502
lthumb 23.204 61.8596
rfemur 0.583788 3.43808 12.6287
rtibia 29.7114
rfoot 10.0579 -29.124
rtoes -8.80694
lfemur -57.3275 10.9116 7.19443
ltibia 79.6168
lfoot -33.0631 -13.2691
ltoes -22.2777
566
root 7.33025 15.82 33.8849 -304.515 -62.8785 320.469
lowerback 16.8864 -1.78546 -8.94941
upperback 3.35213 -3.92491 1.47462
thorax -5.12476 -1.84725 7.47901
lowerneck -8.26612 -12.4082 -13.8714
upperneck 13.3069 -19.4166 22.6631
head 9.29873 -8.69622 7.4795
rclavicle 1.11319e-014 6.04305e-014
rhumerus -71.588 -43.3924 -20.2577
rradius 86.2665
rwrist -82.2235
rhand -34.0586 7.93934
rfingers 7.12502
rthumb -7.2361 -21.9169
lclavicle 1.11319e-014 6.04305e-014
lhumerus -24.2513 17.7977 65.4054
lradius 52.6175
lwrist -3.43416
lhand -9.12308 36.2274
lfingers 7.12502
lthumb 16.828 65.5183
rfemur -0.650372 3.91035 12.2399
rtibia 32.432
rfoot 16.7066 -26.1826
rtoes -5.93036
lfemur -57.0797 9.95675 5.49586
ltibia 79.1306
lfoot -33.0143 -13.8096
ltoes -19.2556
567
root 7.27485 15.9082 34.1046 -308.496 -62.6518 324.151
lowerback 17.592 -1.61897 -9.45797
upperback 3.576 -3.88893 1.09898
thorax -5.26174 -1.82706 7.39208
lowerneck -8.36497 -12.8114 -13.439
upperneck 12.8573 -19.9206 22.5991
head 9.21546 -8.92431 7.26936
rclavicle 3.65764e-014 -1.27222e-014
rhumerus -71.4311 -44.7632 -19.549
rradius 85.4919
rwrist -82.0138
rhand -33.25 3.49605
rfingers 7.12502
rthumb -6.45559 -26.3856
lclavicle 3.65764e-014 -1.27222e-014
lhumerus -23.0472 15.5493 66.6411
lradius 52.0962
lwrist -0.693405
lhand -10.0702 36.6109
lfingers 7.12502
lthumb 15.9161 65.9769
rfemur -1.22146 3.84074 11.5797
rtibia 35.3591
rfoot 22.0811 -20.5556
rtoes -2.07278
lfemur -56.2216 8.17836 3.52899
ltibia 78.4954
lfoot -33.0788 -14.2561
ltoes -16.1983
568
root 7.2479 15.9864 34.3034 -307.666 -61.0284 323.416
lowerback 17.5841 -1.5351 -7.68905
upperback 3.55253 -3.44294 1.29236
thorax -5.46935 -1.61973 6.50709
lowerneck -8.54885 -13.2474 -12.8273
upperneck 12.5533 -20.5136 22.4725
head 9.18292 -9.18126 6.9914
rclavicle 1.90833e-014 -9.54166e-015
rhumerus -71.4103 -46.4255 -18.6533
rradius 84.5539
rwrist -80.8541
rhand -34.7037 5.77039
rfingers 7.12502
rthumb -7.85884 -24.0635
lclavicle 1.90833e-014 -9.54166e-015
lhumerus -21.8522 15.4602 66.9311
lradius 51.1712
lwrist -3.54662
lhand -4.58495 34.6502
lfingers 7.12502
lthumb 21.1921 63.5118
rfemur -3.20473 4.58868 13.6534
rtibia 38.5863
rfoot 24.3179 -16.2062
rtoes 3.66052
lfemur -56.2802 7.96651 4.23909
ltibia 77.9582
lfoot -32.7083 -15.4537
ltoes -12.9175
569
root 7.20377 16.0635 34.5132 -309.421 -60.9475 325.32
lowerback 17.4187 -1.23764 -7.76673
upperback 3.64262 -3.0721 1.00153
thorax -5.35704 -1.44789 6.14856
lowerneck -8.68243 -13.5542 -12.2589
upperneck 12.1712 -20.8919 22.3279
head 9.06989 -9.34782 6.76187
rclavicle 5.24792e-014 -1.90833e-014
rhumerus -71.526 -48.3303 -17.1834
rradius 83.4212
rwrist -79.1988
rhand -36.0477 6.21833
rfingers 7.12502
rthumb -9.15585 -23.5629
lclavicle 5.24792e-014 -1.90833e-014
lhumerus -20.8535 13.2285 68.3596
lradius 50.6809
lwrist -0.636183
lhand -9.58996 35.8088
lfingers 7.12502
lthumb 16.3785 65.1373
rfemur -4.67126 4.68923 13.3756
rtibia 41.7182
rfoot 24.031 -13.0133
rtoes 4.23149
lfemur -55.7414 6.99079 2.76937
ltibia 77.221
lfoot -32.4773 -15.9727
ltoes -9.75472
570
root 7.18 16.1291 34.7252 -309.749 -60.9157 326.297
lowerback 16.6243 -1.44276 -7.96206
upperback 3.26235 -3.28319 1.3633
thorax -5.26891 -1.53229 6.66071
lowerneck -7.80609 -13.2825 -14.0949
upperneck 11.9923 -20.3084 22.5795
head 8.96929 -9.19246 7.30319
rclavicle 1.59028e-015 6.04305e-014
rhumerus -68.7874 -48.7041 -17.6982
rradius 82.3034
rwrist -77.7036
rhand -36.2042 4.82474
rfingers 7.12502
rthumb -9.30679 -24.9498
lclavicle 1.59028e-015 6.04305e-014
lhumerus -21.6188 14.551 68.6226
lradius 50.0582
lwrist -3.66128
lhand -4.77558 33.1409
lfingers 7.12502
lthumb 21.009 62.023
rfemur -7.03035 4.75958 13.2474
rtibia 44.9148
rfoot 22.375 -11.19
rtoes -0.133045
lfemur -55.7946 6.54033 1.57986
ltibia 76.4789
lfoot -31.9097 -16.5861
ltoes -6.01543
